<svg width="102" height="65" viewBox="0 0 102 65" fill="none" xmlns="http://www.w3.org/2000/svg">
<path d="M13.0418 12.212L2.1628 52.586C2.02901 53.0825 2.0023 53.1929 1.84471 53.6824C1.51795 54.6974 1.34998 56.1572 1.34998 57.2235V57.3374C1.34998 58.4823 1.27633 59.2276 1.72748 60.2798C2.80769 62.7992 6.22654 63.5137 8.96774 63.5182L75.5769 63.6286C79.5992 63.6352 83.9375 63.3254 86.5411 60.2595C87.7351 58.8534 88.5837 57.3462 88.9771 56.3851L100.881 10.9848C101.24 9.61492 101.401 8.20066 101.359 6.78512C101.333 5.91906 101.277 5.03592 100.915 4.24846C100.8 3.99688 100.67 3.76105 100.528 3.54051C99.0857 1.28531 96.0771 1.0327 93.4 1.03868L40.5221 1.1569H26.9483C23.2281 1.1569 18.8615 1.8092 16.4371 4.63094C14.5029 6.8823 13.814 9.34607 13.0418 12.212Z" fill="#0181FE" stroke="#0181FE"/>
<path d="M59.5971 2.25328L58.7733 1.35412C58.5839 1.14737 58.3164 1.02964 58.036 1.02964H53.2645C53.0235 1.02964 52.8067 1.17631 52.717 1.40006L52.7085 1.4213C52.6776 1.49832 52.628 1.56644 52.5642 1.6195C52.434 1.72779 52.2565 1.76233 52.0949 1.7119C51.9992 1.68207 51.9139 1.62415 51.8512 1.54597L51.7376 1.40417C51.5478 1.16742 51.2608 1.02964 50.9573 1.02964H42.9708C42.0485 1.02964 41.6178 2.17192 42.3106 2.78077L48.7975 8.48202C49.0991 8.74715 49.213 9.16683 49.0863 9.54792C46.5709 17.1131 43.7953 25.1924 40.8282 31.3161C38.7517 35.6017 37.8745 38.6806 35.0361 40.8431C35.022 40.8538 35.0036 40.8575 34.9866 40.8531L31.3248 39.9015C28.8974 39.2706 26.3995 38.9513 23.8914 38.9513H23.0525C21.7127 38.9513 20.3166 38.981 19.1649 39.6656C18.3828 40.1304 17.7848 40.7284 17.3593 41.2907C16.7934 42.0384 16.6517 42.9952 16.6517 43.933C16.6517 45.093 16.8679 46.2758 17.5744 47.1959C19.7209 49.9913 22.7861 50.2769 22.8744 50.2769H29.026L29.4242 50.2257C30.2795 50.0021 33.3156 49.0979 35.0896 48.5646C35.2414 48.5189 35.401 48.5103 35.5569 48.5388L42.8812 49.8788C42.9406 49.8897 43.0008 49.8952 43.0612 49.8952H45.0083C45.5693 49.8952 46.0182 50.3586 46.0299 50.9195C46.1617 57.2873 48.8418 61.5164 50.4495 63.1257C50.6218 63.2982 50.8579 63.3841 51.1018 63.3841H70.8013C71.0119 63.3841 71.2183 63.3196 71.382 63.1871C73.6608 61.343 76.5555 56.5678 78.0703 53.7191C78.3043 53.279 78.1658 52.7375 77.7566 52.4529L73.9889 49.8316C73.5346 49.5156 72.9092 49.6291 72.5999 50.088C70.6612 52.9647 69.5229 54.981 67.657 56.3851C62.7887 60.0486 57.8941 59.0278 55.2117 56.7669C53.527 55.2834 53.2952 53.1206 52.7136 51.3248C52.6798 51.2205 52.6615 51.1118 52.6615 51.0022V50.4153C52.6615 49.9593 52.97 49.561 53.4116 49.4471L55.5452 48.8964C55.5948 48.8836 55.6434 48.867 55.6905 48.8467L58.4995 47.6384C58.5518 47.6159 58.6021 47.589 58.6498 47.5579L60.9243 46.0776C61.6956 45.611 62.1651 45.2362 63.1262 44.092C63.1541 44.0588 63.1804 44.0211 63.2022 43.9836L63.2974 43.8199C63.6806 43.1628 64.4947 43.5352 64.4947 44.296C64.4947 44.3319 64.5109 44.3577 64.5343 44.3762C64.6243 44.4476 64.7562 44.4028 64.8643 44.3635C80.6466 38.6363 85.5445 26.3342 86.0189 20.8813V16.9137C86.0189 16.8442 86.0114 16.7731 85.9966 16.7051C84.4228 9.46275 79.6498 7.73189 77.45 7.7741H74.6958C69.7002 8.21296 65.4578 11.2058 63.3154 13.2458C62.8533 13.6858 62.0949 13.6523 61.7145 13.1399L57.7584 7.80994C57.5142 7.481 57.4954 7.0364 57.7108 6.68798L59.7103 3.45475C59.9457 3.07406 59.8995 2.58331 59.5971 2.25328Z" fill="white"/>
<path d="M39.5019 20.3722L42.6642 13.5005C35.4827 7.59595 33.0353 2.72636 32.8712 1.02964H26.1385C26.1385 8.66488 35.0474 17.3181 39.5019 20.3722Z" fill="white"/>
<path d="M47.428 43.9142L43.6536 43.5324C47.02 39.4603 48.5501 33.9884 50.3863 29.28C52.4265 23.4263 53.5487 19.0997 54.7728 16.8091L58.2411 21.8993C50.8964 31.2652 47.9381 40.5208 47.428 43.9142Z" fill="#0181FE"/>
<path d="M24.2717 44.9322H26.2099C28.7398 45.1359 29.7803 45.7806 29.9844 46.0775V46.9683C29.5763 47.7827 27.9781 47.9863 27.2301 47.9863H26.2099H24.4758C22.4356 47.2228 23.1496 45.1868 24.2717 44.9322Z" fill="#0181FE"/>
<path d="M54.4668 43.0234C54.5688 42.8962 55.6909 38.1878 60.8935 30.0435C60.8257 30.1498 63.3417 40.0966 54.4668 43.0234Z" fill="#0181FE"/>
<path d="M66.096 23.4263C67.8098 26.9894 67.6942 33.7339 67.4221 36.6607C74.8485 32.894 78.2013 27.2015 78.9494 24.8261C81.0712 18.0053 77.1812 16.9788 74.9709 17.4454C71.2986 17.8526 67.5242 21.6023 66.096 23.4263Z" fill="#0181FE"/>
</svg>
